<?xml version="1.0" standalone="no"?>
<!DOCTYPE svg PUBLIC "-//W3C//DTD SVG 20010904//EN"
 "http://www.w3.org/TR/2001/REC-SVG-20010904/DTD/svg10.dtd">
<svg version="1.0" xmlns="http://www.w3.org/2000/svg"
 width="1025.000000pt" height="1025.000000pt" viewBox="0 0 1025.000000 1025.000000"
 preserveAspectRatio="xMidYMid meet">
<metadata>
Created by potrace 1.14, written by Peter Selinger 2001-2017
</metadata>
<g transform="translate(0.000000,1025.000000) scale(0.100000,-0.100000)"
fill="#000000" stroke="none">
<path d="M2899 7643 c-6 -16 -40 -107 -75 -203 -36 -96 -74 -197 -84 -225 -10
-27 -111 -303 -224 -612 -114 -309 -210 -573 -215 -585 -6 -13 -40 -106 -76
-208 -36 -102 -71 -196 -76 -209 -9 -22 -343 -931 -414 -1126 -18 -49 -60
-166 -94 -260 -34 -93 -67 -181 -72 -195 -10 -23 -115 -309 -194 -525 -40
-109 -321 -873 -330 -897 -7 -17 12 -18 318 -18 l326 0 10 33 c8 29 100 291
114 327 4 8 68 188 142 400 75 212 157 441 182 510 25 69 47 135 50 148 l5 22
1033 0 1034 0 6 -22 c4 -13 29 -84 55 -158 27 -74 110 -308 185 -520 75 -212
147 -414 160 -450 13 -36 37 -105 55 -155 17 -49 35 -100 40 -112 l10 -23 320
0 320 0 1 53 c0 28 1 540 2 1137 l2 1085 1356 1 1357 2 -2 -1139 -1 -1139 306
0 c237 0 308 3 311 13 2 6 3 1150 3 2542 l-1 2530 -307 3 -307 2 -1 -22 c0
-13 -1 -523 -1 -1134 l-1 -1110 -1353 0 c-1218 0 -1354 1 -1358 15 -3 9 -5
507 -5 1106 0 600 0 1102 0 1118 l-1 27 -307 -2 -308 -3 0 -1697 c1 -934 0
-1698 -1 -1698 -1 0 -68 181 -69 190 -1 3 -9 22 -18 44 -9 21 -17 41 -17 45 0
3 -27 78 -60 166 -33 88 -60 163 -60 166 0 4 -8 24 -17 45 -9 22 -18 44 -19
49 -2 6 -14 39 -27 75 -28 75 -145 393 -193 525 -18 50 -71 196 -119 325 -48
129 -91 246 -95 260 -5 14 -20 57 -35 95 -14 39 -62 167 -105 285 -43 118
-108 294 -143 390 -36 96 -102 276 -147 400 -45 124 -91 251 -103 283 l-22 57
-318 0 -317 0 -11 -27z m356 -807 c8 -17 27 -69 44 -116 47 -135 104 -298 194
-550 25 -69 73 -204 107 -300 33 -96 75 -213 92 -260 44 -122 69 -193 138
-390 34 -96 66 -184 70 -195 5 -11 16 -40 24 -65 8 -25 36 -103 61 -175 26
-71 48 -134 49 -140 2 -5 8 -23 15 -39 6 -16 10 -31 7 -33 -3 -4 -1217 -6
-1588 -4 l-78 1 36 98 c19 53 105 295 190 537 86 242 159 449 164 460 10 26
47 128 100 280 23 66 53 149 65 185 13 36 74 207 136 380 61 173 115 324 119
336 12 30 40 25 55 -10z"/>
</g>
</svg>
